HIERARCHY
ROOT SpineBase
{
  OFFSET 0.000000 0.000000 0.000000
  CHANNELS 6 Xposition Yposition Zposition Zrotation Xrotation Yrotation
  JOINT SpineMid
  {
    OFFSET 0.000000 28.329175 0.000000
    CHANNELS 3 Zrotation Xrotation Yrotation
    JOINT SpineShoulder
    {
      OFFSET 0.170515 21.008255 -0.568818
      CHANNELS 3 Zrotation Xrotation Yrotation
      JOINT Neck
      {
        OFFSET 0.084924 6.929295 -0.461234
        CHANNELS 3 Zrotation Xrotation Yrotation
        JOINT Head
        {
          OFFSET -2.330050 12.308744 0.817733
          CHANNELS 3 Zrotation Xrotation Yrotation
          End Site
          {
            OFFSET 0 0 0
          }
        }
      }
      JOINT ShoulderLeft
      {
        OFFSET -13.328750 -5.641882 5.315124
        CHANNELS 3 Zrotation Xrotation Yrotation
        JOINT ElbowLeft
        {
          OFFSET -1.882330 -19.772285 1.826618
          CHANNELS 3 Zrotation Xrotation Yrotation
          JOINT WristLeft
          {
            OFFSET -1.071546 -19.895384 1.496649
            CHANNELS 3 Zrotation Xrotation Yrotation
            JOINT HandLeft
            {
              OFFSET 1.076847 -5.346252 -3.007066
              CHANNELS 3 Zrotation Xrotation Yrotation
              JOINT HandTipLeft
              {
                OFFSET -0.744807 -5.861458 1.263355
                CHANNELS 3 Zrotation Xrotation Yrotation
                End Site
                {
                  OFFSET 0 0 0
                }
              }
              JOINT ThumbLeft
              {
                OFFSET -2.050154 0.413384 3.797048
                CHANNELS 3 Zrotation Xrotation Yrotation
                End Site
                {
                  OFFSET 0 0 0
                }
              }
            }
          }
        }
      }
      JOINT ShoulderRight
      {
        OFFSET 8.293631 -4.525767 -12.189497
        CHANNELS 3 Zrotation Xrotation Yrotation
        JOINT ElbowRight
        {
          OFFSET 1.682077 -19.990914 -3.565371
          CHANNELS 3 Zrotation Xrotation Yrotation
          JOINT WristRight
          {
            OFFSET -2.788003 -19.222102 -6.318248
            CHANNELS 3 Zrotation Xrotation Yrotation
            JOINT HandRight
            {
              OFFSET -4.256313 -8.514770 -2.648792
              CHANNELS 3 Zrotation Xrotation Yrotation
              JOINT HandTipRight
              {
                OFFSET -2.077311 -5.067148 -0.397845
                CHANNELS 3 Zrotation Xrotation Yrotation
                End Site
                {
                  OFFSET 0 0 0
                }
              }
              JOINT ThumbRight
              {
                OFFSET -0.051594 0.946013 -4.161207
                CHANNELS 3 Zrotation Xrotation Yrotation
                End Site
                {
                  OFFSET 0 0 0
                }
              }
            }
          }
        }
      }
    }
  }
  JOINT HipLeft
  {
    OFFSET -5.202371 -0.080113 0.491851
    CHANNELS 3 Zrotation Xrotation Yrotation
    JOINT KneeLeft
    {
      OFFSET 1.554978 -27.168597 7.547700
      CHANNELS 3 Zrotation Xrotation Yrotation
      JOINT AnkleLeft
      {
        OFFSET 6.701434 -35.195145 8.162105
        CHANNELS 3 Zrotation Xrotation Yrotation
        JOINT FootLeft
        {
          OFFSET -2.765493 -6.051937 1.255434
          CHANNELS 3 Zrotation Xrotation Yrotation
          End Site
          {
            OFFSET 0 0 0
          }
        }
      }
    }
  }
  JOINT HipRight
  {
    OFFSET 4.613448 1.417133 -6.751714
    CHANNELS 3 Zrotation Xrotation Yrotation
    JOINT KneeRight
    {
      OFFSET 6.582831 -28.512082 3.758997
      CHANNELS 3 Zrotation Xrotation Yrotation
      JOINT AnkleRight
      {
        OFFSET 6.515968 -32.022242 9.409049
        CHANNELS 3 Zrotation Xrotation Yrotation
        JOINT FootRight
        {
          OFFSET -5.165589 -3.159608 -9.186082
          CHANNELS 3 Zrotation Xrotation Yrotation
          End Site
          {
            OFFSET 0 0 0
          }
        }
      }
    }
  }
}
MOTION
Frames: 13
Frame Time: 0.033333
21.870119 63.955792 366.899589 17.195172 -17.316767 53.336998 1.253463 0.394408 -50.354829 -0.410018 1.277256 0.575706 -19.932571 12.995121 1.510653 0.000000 0.000000 0.000000 56.080019 55.141662 -49.461062 20.463980 -43.633926 37.578603 -29.126315 -36.327311 -20.007299 31.377049 38.548283 7.322757 0.000000 0.000000 0.000000 0.000000 0.000000 0.000000 -79.915445 35.243177 43.251338 0.031140 4.358639 -0.422518 3.900531 3.977073 -12.918172 -6.462124 16.334148 -7.309355 0.000000 0.000000 0.000000 0.000000 0.000000 0.000000 14.035408 29.024246 -55.113561 -7.590909 2.075838 -0.670314 -21.214686 60.012923 -31.719213 0.000000 0.000000 0.000000 14.105966 6.812086 -52.201943 -11.132791 6.077532 0.968946 -0.685469 -9.846432 -22.627788 0.000000 0.000000 0.000000
21.250778 65.066908 366.121171 16.104343 -15.842224 55.658980 1.068289 0.477144 -53.044005 -0.511230 1.202110 0.548172 -18.942812 11.382134 1.222364 0.000000 0.000000 0.000000 57.082386 54.021514 -48.056453 16.041991 -43.295152 33.750383 -31.343588 -34.090799 -18.246710 34.222028 29.644017 9.366044 0.000000 0.000000 0.000000 0.000000 0.000000 0.000000 -67.376331 35.345340 34.451481 -4.284378 5.619603 -0.085034 1.697092 4.432871 -12.101508 -5.210488 15.643816 -7.161953 0.000000 0.000000 0.000000 0.000000 0.000000 0.000000 13.145303 26.721447 -57.188079 -6.062612 2.033701 -0.225474 -15.262412 48.182962 -28.178684 0.000000 0.000000 0.000000 13.705305 4.899719 -54.380907 -10.134781 4.816392 0.981299 1.864650 -17.410779 -24.735813 0.000000 0.000000 0.000000
20.605347 66.356126 365.363703 14.883584 -14.367824 57.506396 0.843539 0.792862 -55.247539 -0.694349 1.231647 0.496615 -16.768800 8.894212 0.550069 0.000000 0.000000 0.000000 56.527118 53.434022 -45.564267 12.967601 -42.083940 30.250997 -32.295665 -32.048134 -16.800080 36.350206 24.548270 9.793241 0.000000 0.000000 0.000000 0.000000 0.000000 0.000000 -54.722564 34.156211 26.072843 -8.656515 7.224256 0.528654 1.291759 2.754537 -11.346363 -4.878346 14.771509 -7.041465 0.000000 0.000000 0.000000 0.000000 0.000000 0.000000 12.533615 24.446044 -58.887890 -4.970053 1.748791 0.012004 -13.232752 39.822477 -24.552435 0.000000 0.000000 0.000000 13.394068 3.180482 -56.097018 -9.122510 3.492884 0.980329 2.247719 -21.217264 -20.117910 0.000000 0.000000 0.000000
19.830197 67.633689 364.728632 13.437476 -12.939825 57.598090 0.495789 0.998866 -55.677348 -0.725271 1.089366 0.451012 -15.889891 7.910452 0.553867 0.000000 0.000000 0.000000 55.105928 53.446658 -43.071896 11.656633 -40.525257 27.833547 -32.711431 -32.467857 -16.103881 37.698052 23.865910 8.392516 0.000000 0.000000 0.000000 0.000000 0.000000 0.000000 -42.799175 32.660351 19.013366 -13.593461 8.750785 1.185893 2.986132 0.303160 -10.698233 -4.182829 14.690296 -6.757716 0.000000 0.000000 0.000000 0.000000 0.000000 0.000000 11.425208 21.851366 -58.618616 -4.488618 1.776388 0.072143 -12.810062 35.837160 -22.545679 0.000000 0.000000 0.000000 13.866672 1.917503 -56.043996 -8.374056 1.384612 0.812061 0.736928 -20.745457 -10.316427 0.000000 0.000000 0.000000
18.904479 68.688078 364.348470 11.388700 -11.786209 57.754446 0.549779 1.064007 -56.244685 -0.552476 1.007583 0.378632 -14.051165 7.120352 0.414061 0.000000 0.000000 0.000000 52.583960 53.377029 -39.769448 11.113025 -38.212586 25.635240 -32.557110 -33.393332 -15.724283 38.446320 25.506767 6.229567 0.000000 0.000000 0.000000 0.000000 0.000000 0.000000 -33.272534 29.690766 13.602410 -16.480985 10.683103 2.112097 5.584672 -3.194508 -9.919186 -5.780304 12.756248 -6.381002 0.000000 0.000000 0.000000 0.000000 0.000000 0.000000 12.096583 18.521893 -58.544031 -5.177916 1.428460 -0.287999 -14.269267 35.498867 -22.001647 0.000000 0.000000 0.000000 14.378564 0.011578 -56.050811 -7.447007 -0.037518 0.847557 -3.022987 -16.619489 -1.037742 0.000000 0.000000 0.000000
18.911958 69.767073 363.571680 10.216650 -9.947030 55.191729 -0.011388 0.963405 -53.949994 -0.564709 0.911583 0.334615 -13.042423 6.538411 0.436960 0.000000 0.000000 0.000000 48.772171 53.089312 -35.908737 11.490916 -35.654161 24.078042 -32.411985 -35.739810 -15.815634 40.181083 30.090849 2.185399 0.000000 0.000000 0.000000 0.000000 0.000000 0.000000 -25.469851 26.042160 9.275415 -19.132757 12.785985 3.175176 10.531962 -7.625720 -8.717489 -7.076819 10.955010 -5.549930 0.000000 0.000000 0.000000 0.000000 0.000000 0.000000 8.958444 16.347812 -55.451312 -5.106363 2.740653 -0.097706 -17.124190 39.990354 -23.146496 0.000000 0.000000 0.000000 13.226974 -0.071141 -53.432178 -5.675156 -0.943402 1.050853 -7.621395 -11.722258 5.777294 0.000000 0.000000 0.000000
19.139500 70.920839 363.010805 9.160488 -8.246706 50.278943 -0.319719 0.803576 -49.287926 -0.696933 0.721043 0.305051 -12.305421 5.915213 0.489131 0.000000 0.000000 0.000000 44.594934 52.520593 -31.939659 14.087814 -32.942831 24.360245 -27.094900 -34.937722 -16.270227 30.239198 31.029414 7.707065 0.000000 0.000000 0.000000 0.000000 0.000000 0.000000 -20.129116 22.803761 6.607923 -16.268990 11.360172 2.260893 7.691978 -5.210740 -8.089457 -1.059805 6.281142 -4.239833 0.000000 0.000000 0.000000 0.000000 0.000000 0.000000 6.194709 15.180802 -50.293812 -4.528923 2.541330 0.004350 -17.203469 41.846242 -23.329305 0.000000 0.000000 0.000000 11.749726 0.715970 -48.593011 -3.638804 -1.326040 1.329191 -12.071074 -7.125351 10.026947 0.000000 0.000000 0.000000
19.884340 71.912749 362.505470 8.399424 -6.616479 48.686306 -0.435295 0.653361 -47.901683 -0.673120 0.492388 0.283785 -10.718548 4.756524 0.197831 0.000000 0.000000 0.000000 40.267280 51.628516 -28.221860 14.709516 -30.469894 23.106432 -23.161960 -34.999456 -16.082923 29.711115 34.522167 7.030724 0.000000 0.000000 0.000000 0.000000 0.000000 0.000000 -16.535869 19.983203 4.830604 -11.897529 9.156515 0.923645 8.600023 -5.906883 -6.657422 1.474902 4.395769 -2.697964 0.000000 0.000000 0.000000 0.000000 0.000000 0.000000 4.525995 14.574763 -48.790801 -3.464635 1.569015 0.172570 -16.797139 43.999222 -23.624418 0.000000 0.000000 0.000000 9.834030 0.779625 -47.050021 -2.006079 -1.955526 1.468943 -13.778898 -4.916988 12.791131 0.000000 0.000000 0.000000
20.985308 72.514069 362.150334 7.900937 -5.158341 48.656320 -0.346333 0.590264 -48.040566 -0.585152 0.289628 0.271656 -9.585864 3.785064 0.006544 0.000000 0.000000 0.000000 36.396470 50.446952 -25.033661 14.893220 -25.130305 20.729280 -22.340611 -43.379650 -16.385627 32.035813 46.810572 -1.625513 0.000000 0.000000 0.000000 0.000000 0.000000 0.000000 -11.694430 16.263635 2.548896 -10.198812 6.921049 0.356235 10.412929 -2.393354 -6.851442 2.311618 3.113198 -0.901691 0.000000 0.000000 0.000000 0.000000 0.000000 0.000000 3.437043 14.792092 -49.058750 -2.052200 0.023218 0.407464 -16.136280 46.129634 -23.991945 0.000000 0.000000 0.000000 7.521887 0.659700 -47.154406 -0.836822 -1.996363 1.505759 -13.418396 -3.654085 12.362818 0.000000 0.000000 0.000000
22.298986 72.469796 362.006310 7.726375 -4.119953 49.917772 -0.226020 0.875860 -49.417559 -0.501612 0.068224 0.266072 -8.558017 2.853239 -0.159015 0.000000 0.000000 0.000000 33.877986 49.300045 -22.815462 12.883498 -24.821298 18.630990 -20.609983 -43.639932 -15.481219 31.006119 46.977513 -2.039249 0.000000 0.000000 0.000000 0.000000 0.000000 0.000000 -8.057933 13.220015 1.073166 -6.998469 4.004842 -0.454707 4.713705 4.111716 -7.303627 11.158689 -3.539575 3.138781 0.000000 0.000000 0.000000 0.000000 0.000000 0.000000 3.178170 16.130521 -50.825675 -0.310733 -2.134101 0.728590 -15.132040 48.217253 -24.565567 0.000000 0.000000 0.000000 5.316551 0.628467 -48.614672 0.092511 -1.876708 1.521089 -11.448617 -3.165106 8.773587 0.000000 0.000000 0.000000
23.390321 72.851470 361.801206 7.231660 -2.903999 50.060006 -0.142821 0.708457 -49.681864 -0.450012 0.015633 0.250004 -7.053275 1.485289 -0.418045 0.000000 0.000000 0.000000 32.190513 47.737618 -20.854672 8.416861 -28.290008 16.021882 -19.019433 -37.072401 -13.534057 28.579637 39.448223 1.310435 0.000000 0.000000 0.000000 0.000000 0.000000 0.000000 -4.190583 10.229086 -0.211516 -5.236094 0.909233 -0.747214 5.479321 6.736662 -7.652932 11.945211 -2.371046 4.069818 0.000000 0.000000 0.000000 0.000000 0.000000 0.000000 2.527164 16.549876 -51.308125 0.895840 -3.580235 0.973728 -13.779905 50.142418 -25.299302 0.000000 0.000000 0.000000 3.633579 0.626286 -48.901072 0.928084 -2.276313 1.456695 -10.703223 -2.030867 7.667682 0.000000 0.000000 0.000000
24.264162 73.102153 361.722091 6.468119 -2.048882 49.877809 -0.043527 0.500884 -49.592436 -0.271215 -0.079334 0.237569 -5.772712 1.880996 -0.312931 0.000000 0.000000 0.000000 33.743117 47.144979 -20.939631 -0.678902 -36.741696 11.687402 -16.678404 -23.131162 -9.495838 23.603460 22.139553 6.252576 0.000000 0.000000 0.000000 0.000000 0.000000 0.000000 -0.717885 7.825816 -1.122242 -2.694842 -2.278822 -0.994700 6.827289 9.287003 -8.636754 9.397522 0.037050 4.081919 0.000000 0.000000 0.000000 0.000000 0.000000 0.000000 2.351581 16.733856 -51.402970 1.778278 -4.835679 1.141095 -12.726536 51.578882 -25.840969 0.000000 0.000000 0.000000 2.974438 0.425155 -48.783573 1.282941 -2.925288 1.304812 -10.053177 -1.089516 6.929755 0.000000 0.000000 0.000000
24.949305 73.184809 361.730734 5.640997 -1.496221 48.831914 0.059588 0.547849 -48.621991 -0.243966 -0.029875 0.200374 -3.851317 1.256529 -0.378622 0.000000 0.000000 0.000000 39.282944 50.152026 -24.864269 -17.393307 -53.525337 2.122720 -8.708813 -3.939415 -4.980214 18.371226 0.912880 9.242409 0.000000 0.000000 0.000000 0.000000 0.000000 0.000000 3.523847 5.767221 -1.920513 -1.738909 -3.804338 -1.087361 10.310842 7.425514 -8.606499 6.188105 2.562933 3.727291 0.000000 0.000000 0.000000 0.000000 0.000000 0.000000 2.427581 16.535006 -50.459981 1.897884 -5.783486 1.072430 -11.427305 52.894467 -26.476511 0.000000 0.000000 0.000000 3.286790 0.258486 -47.668338 0.995171 -4.163362 0.968489 -9.351241 0.030403 6.234095 0.000000 0.000000 0.000000
